<mxfile host="app.diagrams.net" modified="2023-07-10T17:18:54.741Z" agent="Mozilla/5.0 (X11; Linux x86_64; rv:102.0) Gecko/20100101 Firefox/102.0" version="21.4.0" etag="Le_C34jaIvjvD-sko2Pe" type="github">
  <diagram name="Seite-1" id="cWG-DjWtfoRgTVu2TCmR">
    <mxGraphModel>
      <root>
        <mxCell id="0" />
        <mxCell id="1" parent="0" />
      </root>
    </mxGraphModel>
  </diagram>
</mxfile>
